<?xml version="1.0" encoding="UTF-8"?>
<svg width="512" height="512" viewBox="0 0 512 512" fill="none" xmlns="http://www.w3.org/2000/svg">
  <circle cx="256" cy="256" r="256" fill="#22313A"/>
  <g opacity="0.7">
    <rect x="0" y="64" width="512" height="64" fill="#3A5A6A"/>
    <rect x="0" y="192" width="512" height="64" fill="#3A5A6A"/>
    <rect x="0" y="320" width="512" height="64" fill="#3A5A6A"/>
  </g>
  <g>
    <path d="M256 32C273.673 32 288 142.327 288 256C288 369.673 273.673 480 256 480C238.327 480 224 369.673 224 256C224 142.327 238.327 32 256 32Z" fill="#1DE9B6"/>
    <path d="M32 256C32 238.327 142.327 224 256 224C369.673 224 480 238.327 480 256C480 273.673 369.673 288 256 288C142.327 288 32 273.673 32 256Z" fill="#1DE9B6"/>
    <path d="M96 96C109.255 109.255 192 192 256 256C320 320 402.745 402.745 416 416" stroke="#1DE9B6" stroke-width="32"/>
    <path d="M416 96C402.745 109.255 320 192 256 256C192 320 109.255 402.745 96 416" stroke="#1DE9B6" stroke-width="32"/>
  </g>
  <rect x="16" y="176" width="200" height="160" rx="16" fill="#B2DFDB"/>
  <text x="32" y="240" fill="#22313A" font-family="Arial, Helvetica, sans-serif" font-size="64" font-weight="bold">THE</text>
  <text x="32" y="304" fill="#22313A" font-family="Arial, Helvetica, sans-serif" font-size="64" font-weight="bold">UN</text>
  <text x="32" y="368" fill="#22313A" font-family="Arial, Helvetica, sans-serif" font-size="64" font-weight="bold">OFFICIAL</text>
</svg>
